<?xml version="1.0" encoding="UTF-8"?>
<svg width="64" height="64" viewBox="0 0 64 64" xmlns="http://www.w3.org/2000/svg">
  <title>学生Logo</title>
  <g>
    <!-- 男孩 -->
    <path d="M20,12 C16,12 13,16 13,20 C13,24 16,28 20,28 C24,28 27,24 27,20 C27,16 24,12 20,12 Z" fill="#5B3726"/>
    <path d="M15,42 L25,42 L25,55 C25,56.1 24.1,57 23,57 L17,57 C15.9,57 15,56.1 15,55 L15,42 Z" fill="#FFFFFF"/>
    <path d="M15,42 L25,42 L25,43 C25,43 23,45 20,45 C17,45 15,43 15,43 L15,42 Z" fill="#0099FF"/>
    <path d="M12,57 L28,57 L28,62 L12,62 L12,57 Z" fill="#FFFFFF"/>
    <rect x="12" y="57" width="16" height="1" fill="#0099FF"/>
    <rect x="13" y="37" width="14" height="5" fill="#FFFFFF"/>
    <rect x="13" y="42" width="14" height="1" fill="#0099FF"/>
    <path d="M13,29 C13,29 15,35 20,35 C25,35 27,29 27,29 L27,37 L13,37 L13,29 Z" fill="#F0D0B4"/>
    <path d="M19,20 C18.4,20 18,20.4 18,21 C18,21.6 18.4,22 19,22 C19.6,22 20,21.6 20,21 C20,20.4 19.6,20 19,20 Z" fill="#5B3726"/>
    <path d="M21,20 C20.4,20 20,20.4 20,21 C20,21.6 20.4,22 21,22 C21.6,22 22,21.6 22,21 C22,20.4 21.6,20 21,20 Z" fill="#5B3726"/>
    <path d="M20,23 C19,23 18.5,24 18.5,24 C18.5,24 19,25 20,25 C21,25 21.5,24 21.5,24 C21.5,24 21,23 20,23 Z" fill="#D32F2F"/>
    
    <!-- 女孩 -->
    <path d="M44,12 C40,12 37,16 37,20 C37,24 40,28 44,28 C48,28 51,24 51,20 C51,16 48,12 44,12 Z" fill="#5B3726"/>
    <path d="M38,42 L50,42 L50,55 C50,56.1 49.1,57 48,57 L40,57 C38.9,57 38,56.1 38,55 L38,42 Z" fill="#FFFFFF"/>
    <path d="M38,42 L50,42 L50,43 C50,43 48,45 44,45 C40,45 38,43 38,43 L38,42 Z" fill="#0099FF"/>
    <path d="M36,57 L52,57 L52,62 L36,62 L36,57 Z" fill="#FFFFFF"/>
    <rect x="36" y="57" width="16" height="1" fill="#0099FF"/>
    <path d="M38,37 L50,37 L50,42 L38,42 L38,37 Z" fill="#0099FF"/>
    <path d="M37,29 C37,29 39,35 44,35 C49,35 51,29 51,29 L51,37 L37,37 L37,29 Z" fill="#F0D0B4"/>
    <path d="M43,20 C42.4,20 42,20.4 42,21 C42,21.6 42.4,22 43,22 C43.6,22 44,21.6 44,21 C44,20.4 43.6,20 43,20 Z" fill="#5B3726"/>
    <path d="M45,20 C44.4,20 44,20.4 44,21 C44,21.6 44.4,22 45,22 C45.6,22 46,21.6 46,21 C46,20.4 45.6,20 45,20 Z" fill="#5B3726"/>
    <path d="M44,23 C43,23 42.5,24 42.5,24 C42.5,24 43,25 44,25 C45,25 45.5,24 45.5,24 C45.5,24 45,23 44,23 Z" fill="#D32F2F"/>
  </g>
</svg> 